<svg width="530" height="459" viewBox="0 0 530 459" fill="none" xmlns="http://www.w3.org/2000/svg">
<g filter="url(#filter0_d_5_23)">
<path d="M261.408 317.149C263.122 320.119 261.407 323.893 258.043 324.555L112.88 353.125C110.782 353.538 108.653 352.571 107.584 350.72L61.9247 271.635C60.85 269.773 61.0852 267.433 62.5088 265.823L160.302 155.206C162.564 152.646 166.67 153.059 168.378 156.017L261.408 317.149Z" fill="#F5BE58"/>
<path d="M261.408 317.149C263.122 320.119 261.407 323.893 258.043 324.555L112.88 353.125C110.782 353.538 108.653 352.571 107.584 350.72L61.9247 271.635C60.85 269.773 61.0852 267.433 62.5088 265.823L160.302 155.206C162.564 152.646 166.67 153.059 168.378 156.017L261.408 317.149Z" fill="url(#paint0_linear_5_23)" fill-opacity="0.2"/>
<path d="M361.504 156.056C363.218 153.086 367.344 152.684 369.6 155.266L466.924 266.696C468.33 268.307 468.557 270.634 467.488 272.486L421.828 351.57C420.754 353.432 418.61 354.398 416.503 353.97L271.809 324.588C268.462 323.908 266.766 320.146 268.474 317.188L361.504 156.056Z" fill="#F0077B"/>
<path d="M361.504 156.056C363.218 153.086 367.344 152.684 369.6 155.266L466.924 266.696C468.33 268.307 468.557 270.634 467.488 272.486L421.828 351.57C420.754 353.432 418.61 354.398 416.503 353.97L271.809 324.588C268.462 323.908 266.766 320.146 268.474 317.188L361.504 156.056Z" fill="url(#paint1_linear_5_23)" fill-opacity="0.2"/>
<path d="M171.992 150C168.564 150 166.152 146.628 167.261 143.383L215.1 3.38325C215.792 1.3598 217.693 0 219.832 0H311.151C313.3 0 315.209 1.37366 315.892 3.41172L362.793 143.412C363.878 146.651 361.468 150 358.052 150H171.992Z" fill="#079EA6"/>
<path d="M171.992 150C168.564 150 166.152 146.628 167.261 143.383L215.1 3.38325C215.792 1.3598 217.693 0 219.832 0H311.151C313.3 0 315.209 1.37366 315.892 3.41172L362.793 143.412C363.878 146.651 361.468 150 358.052 150H171.992Z" fill="url(#paint2_linear_5_23)" fill-opacity="0.2"/>
</g>
<defs>
<filter id="filter0_d_5_23" x="0" y="0" width="537.545" height="466.205" filterUnits="userSpaceOnUse" color-interpolation-filters="sRGB">
<feFlood flood-opacity="0" result="BackgroundImageFix"/>
<feColorMatrix in="SourceAlpha" type="matrix" values="0 0 0 0 0 0 0 0 0 0 0 0 0 0 0 0 0 0 127 0" result="hardAlpha"/>
<feOffset dx="4" dy="4"/>
<feGaussianBlur stdDeviation="2"/>
<feComposite in2="hardAlpha" operator="out"/>
<feColorMatrix type="matrix" values="0 0 0 0 0 0 0 0 0 0 0 0 0 0 0 0 0 0 0.25 0"/>
<feBlend mode="normal" in2="BackgroundImageFix" result="effect1_dropShadow_5_23"/>
<feBlend mode="normal" in="SourceGraphic" in2="effect1_dropShadow_5_23" result="shape"/>
</filter>
<linearGradient id="paint0_linear_5_23" x1="85" y1="311.603" x2="214.904" y2="236.603" gradientUnits="userSpaceOnUse">
<stop stop-opacity="0"/>
<stop offset="1"/>
</linearGradient>
<linearGradient id="paint1_linear_5_23" x1="444.904" y1="311.603" x2="315" y2="236.603" gradientUnits="userSpaceOnUse">
<stop stop-opacity="0"/>
<stop offset="1"/>
</linearGradient>
<linearGradient id="paint2_linear_5_23" x1="265" y1="0" x2="265" y2="150" gradientUnits="userSpaceOnUse">
<stop stop-opacity="0"/>
<stop offset="1"/>
</linearGradient>
</defs>
</svg>
